<?xml version="1.0" standalone="no"?>
<!DOCTYPE svg PUBLIC "-//W3C//DTD SVG 20010904//EN"
 "http://www.w3.org/TR/2001/REC-SVG-20010904/DTD/svg10.dtd">
<svg version="1.0" xmlns="http://www.w3.org/2000/svg"
 width="512.000000pt" height="512.000000pt" viewBox="0 0 512.000000 512.000000"
 preserveAspectRatio="xMidYMid meet">
<metadata>
Created by potrace 1.14, written by Peter Selinger 2001-2017
</metadata>
<g transform="translate(0.000000,512.000000) scale(0.100000,-0.100000)"
fill="#000000" stroke="none">
<path d="M2379 5116 c-2 -2 -40 -6 -83 -10 -44 -4 -82 -8 -85 -10 -3 -2 -31
-7 -61 -11 -30 -3 -75 -11 -100 -17 -25 -5 -56 -12 -70 -14 -52 -10 -236 -66
-326 -100 -412 -154 -826 -454 -1084 -784 -19 -25 -37 -47 -40 -50 -7 -7 -45
-61 -105 -150 -176 -260 -312 -589 -374 -905 -40 -200 -46 -267 -45 -515 0
-184 3 -241 19 -345 3 -16 7 -43 9 -60 23 -166 104 -441 176 -600 54 -119 53
-113 21 -130 -36 -18 -113 -94 -150 -148 -75 -111 -98 -272 -59 -406 67 -223
298 -502 629 -757 132 -102 141 -107 211 -102 54 3 71 10 118 43 30 22 57 42
60 45 3 3 28 23 55 45 28 22 87 73 133 114 l84 73 105 -51 c242 -120 495 -202
729 -236 22 -4 50 -8 64 -11 144 -26 530 -26 708 1 75 12 90 14 142 25 30 6
66 13 80 16 193 37 522 170 735 299 535 322 934 826 1124 1419 29 89 75 274
86 347 22 142 30 242 30 424 0 217 -11 339 -44 500 -6 28 -13 61 -15 75 -31
157 -114 386 -209 578 l-51 102 35 38 c129 136 235 308 269 432 55 199 -20
412 -188 533 -44 32 -132 74 -173 83 -11 2 -29 6 -41 9 -13 3 -55 6 -94 7
-109 1 -218 -30 -301 -86 -36 -25 -37 -25 -62 -7 -138 97 -334 120 -498 59
l-53 -19 -89 40 c-201 90 -451 162 -681 196 -19 3 -53 7 -75 11 -44 6 -460 15
-466 10z"/>
</g>
</svg>
